<?xml version="1.0" encoding="UTF-8"?>
<svg id="Capa_1" data-name="Capa 1" xmlns="http://www.w3.org/2000/svg" viewBox="0 0 334 392">
  <defs>
    <style>
      .cls-1 {
        fill: #c00105;
        stroke-width: 0px;
      }
    </style>
  </defs>
  <path class="cls-1" d="m36.93,218.29c0-29.57-.02-59.15.01-88.72.01-9.13,5.03-15.54,13.15-17.05,9.4-1.74,18.16,5.06,18.8,14.61.09,1.37.05,2.74.05,4.12,0,57.53,0,115.05,0,172.58,0,18.9,13.08,32.02,31.95,32.02,42.54,0,85.09,0,127.63,0,19.09,0,32.08-13.07,32.08-32.27,0-58.03,0-116.05,0-174.08,0-8.58,4.66-15.02,12.05-16.8,9.28-2.23,18.06,3.58,19.61,13.02.28,1.71.33,3.48.33,5.21.02,57.78.03,115.55,0,173.33-.01,31.59-21.32,57.1-52.41,62.67-3.66.66-7.44.88-11.17.88-42.79.06-85.59.06-128.38.03-36.09-.02-63.68-27.69-63.7-63.84-.02-28.58,0-57.15,0-85.73Z"/>
  <path class="cls-1" d="m100.94,64.21c0-10.26-.04-19.96.03-29.67.01-2.23.05-4.54.63-6.66,1.9-6.98,7.92-11.53,15.64-11.55,31.68-.09,63.36-.12,95.04,0,9.8.04,16.2,6.8,16.29,16.69.08,8.86.02,17.71.02,26.57,0,1.35,0,2.69,0,4.61,1.78,0,3.22,0,4.66,0,19.21,0,38.42.02,57.62-.01,5.08,0,9.69,1.21,13.19,5.06,4.51,4.96,5.75,10.72,3.19,16.98-2.49,6.1-7.27,9.3-13.78,9.94-.87.09-1.74.04-2.62.04-84.07,0-168.13,0-252.2,0-9.89,0-16.92-5.88-17.61-14.65-.77-9.77,6.62-17.31,17.2-17.34,19.21-.06,38.42-.02,57.62-.02,1.48,0,2.97,0,5.05,0Zm32-.25h63.59v-15.38h-63.59v15.38Z"/>
  <path class="cls-1" d="m116.86,216.08c0-18.71-.06-37.42.04-56.12.04-7.82,5.47-14.07,13.09-15.57,6.91-1.36,14.37,2.37,17.22,9,1.01,2.34,1.58,5.05,1.58,7.6.1,36.67.11,73.33.04,110-.02,9.92-6.94,17-16.15,16.93-9.19-.07-15.8-7.23-15.82-17.21-.03-18.21,0-36.42,0-54.63Z"/>
  <path class="cls-1" d="m212.68,216c0,18.58.04,37.17-.02,55.75-.03,7.59-4.63,13.53-11.69,15.53-6.85,1.93-14.31-.75-17.72-7.01-1.49-2.73-2.45-6.12-2.46-9.21-.17-36.67-.15-73.34-.08-110,.02-9.91,6.94-16.98,16.16-16.9,9.19.08,15.79,7.23,15.81,17.22.03,18.21,0,36.42,0,54.63Z"/>
</svg>