<?xml version="1.0" encoding="UTF-8"?>
<svg id="Capa_1" data-name="Capa 1" xmlns="http://www.w3.org/2000/svg" viewBox="0 0 490 490">
  <defs>
    <style>
      .cls-1 {
        fill: #4444b6;
      }

      .cls-1, .cls-2, .cls-3, .cls-4 {
        stroke-width: 0px;
      }

      .cls-2 {
        fill: #c20105;
      }

      .cls-3 {
        fill: #9a040c;
      }

      .cls-4 {
        fill: #fdaf00;
      }
    </style>
  </defs>
  <path class="cls-1" d="m136.42,93.87c26.74.21,47.04,12.36,62.1,33.9,10.44,14.93,16.8,31.62,20.42,49.39,1.06,5.18-.93,9.47-5.1,11.47-3.9,1.86-8.86.89-11.5-2.61-1.11-1.47-1.84-3.4-2.23-5.22-3.05-14.18-7.94-27.63-15.89-39.82-15.26-23.42-36.49-32.04-63.81-26.09-10.06,2.19-19.54,5.94-28.73,10.5-6.63,3.29-12.28,1.96-14.91-3.41-2.12-4.33-.8-10.59,6.43-13.96,14.98-6.97,30.25-12.65,46.87-13.96.96-.08,1.92-.16,2.89-.19,1.16-.03,2.31,0,3.47,0Z"/>
  <path class="cls-4" d="m385.41,93.81c15.42.17,31.86,5.41,47.73,12.84,1.66.78,3.33,1.54,4.94,2.41,4.98,2.66,6.84,8.18,4.45,13.05-2.3,4.69-7.81,6.62-12.86,4.17-9.83-4.77-19.83-9.06-30.56-11.36-15.09-3.24-29.76-2.75-43.39,5.44-11.63,6.99-19.47,17.38-25.54,29.25-5.12,10.02-8.76,20.56-10.9,31.62-1.12,5.76-5.88,9.1-11.39,8.13-5.11-.9-8.68-5.72-7.57-11.19,5.12-25.18,14.8-48.11,34.17-65.88,13.44-12.33,29.9-18.42,50.91-18.48Z"/>
  <path class="cls-4" d="m249.86,156.6c0,2.7.03,5.4,0,8.1-.09,5.71-4.11,9.92-9.49,9.96-5.36.04-9.29-4.1-9.71-9.81-.8-10.67-1.08-21.43-2.82-31.95-5.06-30.49-17.78-57.34-39.95-79.28-3.35-3.31-7.06-6.28-10.82-9.13-4.92-3.74-6.32-9.31-3.15-13.88,3.23-4.65,9.22-5.49,14.32-1.83,13.91,9.97,25.04,22.57,34.26,36.89,17.21,26.71,25.4,56.23,27.06,87.75.06,1.06.12,2.12.17,3.18.04,0,.09,0,.13,0Z"/>
  <path class="cls-1" d="m269.51,156.17c1.46-31.21,9-60.62,25.45-87.44,9.58-15.62,21.34-29.31,36.32-40.03,5.33-3.82,11.83-2.51,14.71,2.79,2.21,4.08,1.31,9.16-2.43,12-31.77,24.16-47.59,57.18-53.07,95.83-1.17,8.28-1.35,16.72-1.77,25.1-.31,6.12-4.2,10.35-9.83,10.23-5.46-.11-9.33-4.39-9.37-10.38-.02-2.7,0-5.4,0-8.1Z"/>
  <path class="cls-4" d="m165.75,164.93c5.93.04,10.65,4.79,10.63,10.7-.02,5.92-4.76,10.69-10.65,10.71-6.03.02-10.89-4.87-10.79-10.87.1-5.93,4.87-10.58,10.8-10.54Z"/>
  <path class="cls-1" d="m353.83,186.34c-6.09.01-10.82-4.72-10.81-10.83.01-5.91,4.77-10.59,10.75-10.57,5.88.01,10.72,4.83,10.71,10.66,0,5.86-4.83,10.73-10.65,10.74Z"/>
  <path class="cls-2" d="m138.39,79.21c-5.86-.02-10.66-4.84-10.67-10.7,0-5.88,4.77-10.67,10.65-10.7,6.07-.03,10.86,4.78,10.78,10.82-.09,5.92-4.84,10.59-10.76,10.57Z"/>
  <path class="cls-2" d="m344.73,57.82c5.9.03,10.64,4.78,10.64,10.69,0,5.86-4.82,10.72-10.64,10.72-6.07,0-10.8-4.79-10.75-10.87.06-5.94,4.77-10.57,10.75-10.54Z"/>
  <g>
    <path class="cls-2" d="m332.51,252.76c-49.21.1-98.43.11-147.64-.01-3.7,0-4.56,1.16-4.55,4.67.11,49.21.12,98.43,0,147.64,0,3.71,1.16,4.54,4.68,4.52,24.61-.14,49.21-.07,73.82-.08,24.61,0,49.21-.07,73.82.08,3.64.02,4.61-1.07,4.6-4.64-.1-49.21-.11-98.43,0-147.64,0-3.72-1.25-4.55-4.74-4.54Zm-23.19,77.71c-4.39,4.49-8.67,9.11-13.11,13.55-1.61,1.62-2.28,3.19-1.94,5.55.98,6.8,1.72,13.63,2.49,20.45,1.11,9.98-7.67,16.45-16.83,12.29-6.25-2.84-12.31-6.11-18.58-8.9-1.45-.64-3.66-.68-5.1-.04-6.49,2.88-12.74,6.28-19.23,9.14-8.17,3.6-16.73-2.25-16.42-11.52.81-6.77,1.62-14.07,2.6-21.33.31-2.28-.19-3.93-1.87-5.58-4.39-4.34-8.51-8.94-12.86-13.31-3.58-3.6-5.24-7.69-3.71-12.66,1.5-4.85,5.12-7.21,9.94-8.2,6.27-1.28,12.48-2.87,18.77-4.03,2.72-.5,4.24-1.9,5.49-4.2,3-5.52,6.14-10.97,9.32-16.39,5.12-8.71,15.66-8.74,20.87-.02,3.4,5.69,6.5,11.57,10,17.21.86,1.39,2.59,2.7,4.16,3.1,6.54,1.67,13.16,3,19.77,4.4,4.82,1.02,8.35,3.53,9.76,8.41,1.37,4.73-.18,8.66-3.52,12.08Z"/>
    <path class="cls-2" d="m258.76,314.01c-3.62,9.1-9.87,13.9-19.87,14.52,8.16,6.16,9.8,14.07,7.6,23.59,8.4-6.07,16.32-5.55,24.65-.12-2.5-9.63-.45-17.32,7.62-23.46-9.94-.65-16.43-5.29-20-14.53Z"/>
    <path class="cls-2" d="m361.73,199.77c-68.29-.32-136.59-.64-204.88-.94-19.5-.09-29.37,9.74-29.48,29.35-.18,33.93-.32,67.86-.47,101.78-.16,34.38-.33,68.75-.46,103.13-.07,19.53,9.74,29.37,29.37,29.46,68.29.32,136.59.64,204.88.94,19.51.09,29.39-9.75,29.48-29.35.33-68.31.64-136.61.94-204.92.08-19.46-9.8-29.37-29.37-29.46Zm-14.17,236.89c-59.34,0-118.68,0-178.01,0-11.27,0-16.37-5.04-16.37-16.19,0-59.61,0-119.22,0-178.83,0-10.77,5.06-15.93,15.76-15.95,29.94-.03,59.88-.01,89.83-.01,29.53,0,59.06,0,88.6,0,12.22,0,17,4.72,17,16.78,0,59.2,0,118.4,0,177.6,0,11.76-4.9,16.59-16.79,16.59Z"/>
  </g>
  <path class="cls-3" d="m123.31,348.71c-5.86-.15-11.73-.09-17.59-.03-5.03.05-8.35,3.39-8.42,8.43-.06,3.88-.02,7.76-.02,11.64,0,7.27,0,14.53,0,21.8,0,1.04.28,2.27-1.44,2.26-2.46-.02-4.91,0-7.29,0-1.51-6.51-3.82-9.08-8.63-9.15-8.42-.13-16.85-.13-25.27.01-4.86.08-8.12,3.58-8.17,8.47-.07,5.95-.06,11.89-.02,17.84.03,4.82,3.42,8.37,8.23,8.43,8.42.09,16.85.08,25.27,0,4.27-.04,7.34-2.78,8.12-6.94.12-.64.22-1.28.38-2.23,5.21,0,10.39,0,15.58,0,6.65,0,9.67-3.04,9.67-9.68,0-10.65.04-21.31-.03-31.96-.01-1.92.49-2.71,2.5-2.57,2.22.15,4.47.19,6.68,0,2.02-.17,2.9.29,3.14,1.94v-20.07c-.18,1.37-.84,1.86-2.68,1.82Z"/>
</svg>