<?xml version="1.0" encoding="UTF-8"?>
<svg id="Capa_1" data-name="Capa 1" xmlns="http://www.w3.org/2000/svg" viewBox="0 0 490 327">
  <defs>
    <style>
      .cls-1 {
        fill: #4444b6;
      }

      .cls-1, .cls-2, .cls-3, .cls-4 {
        stroke-width: 0px;
      }

      .cls-2 {
        fill: #c20105;
      }

      .cls-3 {
        fill: #9a040c;
      }

      .cls-4 {
        fill: #fdaf00;
      }
    </style>
  </defs>
  <g>
    <path class="cls-1" d="m335.07,52.98c-11.37,0-22.74,0-34.11,0-3.1,0-4.76,1.65-4.76,4.74,0,5.69,0,11.37,0,17.06,0,5.69,0,11.37,0,17.06,0,3.09,1.67,4.76,4.74,4.76,11.37,0,22.74,0,34.11,0,3.08,0,4.76-1.67,4.77-4.74,0-11.37,0-22.74,0-34.11,0-3.09-1.67-4.76-4.75-4.76Zm1.67,33.37c0,2.69-2,4.68-4.69,4.68-4.68,0-9.37,0-14.05,0-4.66,0-9.32,0-13.97,0-2.79,0-4.76-1.97-4.76-4.77,0-5.99,0-11.97,0-17.96,0-2.79,1.97-4.76,4.77-4.76,1.6,0,3.2,0,4.8,0,.27,0,.39-.07.47-.33.17-.57.36-1.14.57-1.7.66-1.79,2.32-2.96,4.23-2.97,2.6-.01,5.2-.01,7.81,0,1.91.01,3.55,1.18,4.22,2.98.2.54.38,1.08.54,1.63.09.29.21.4.54.4,1.61-.02,3.23-.01,4.84,0,2.69,0,4.68,1.99,4.69,4.68,0,6.04,0,12.08,0,18.11Z"/>
    <path class="cls-1" d="m332.01,66.05c-1.98,0-3.95,0-5.93,0-.76,0-1.15-.28-1.39-1-.28-.82-.55-1.65-.83-2.48-.34-1-1.05-1.52-2.11-1.52-2.48,0-4.97,0-7.45,0-1.11,0-1.79.5-2.15,1.57-.26.78-.52,1.55-.78,2.33-.28.84-.64,1.1-1.52,1.1-1.93,0-3.85,0-5.78,0-1.47,0-2.3.83-2.3,2.29,0,5.96,0,11.92,0,17.88,0,1.49.82,2.32,2.31,2.32,4.64,0,9.29,0,13.93,0s9.31,0,13.97,0c1.41,0,2.26-.85,2.26-2.25,0-6,0-12,0-17.99,0-1.39-.85-2.24-2.23-2.24Zm-14.01,19.99c-5.16,0-9.35-4.2-9.36-9.36,0-5.16,4.19-9.38,9.34-9.38,5.2,0,9.4,4.2,9.4,9.4,0,5.15-4.22,9.34-9.38,9.34Zm12.48-14.99c-.69-.01-1.25-.61-1.22-1.3.03-.68.61-1.22,1.29-1.19.68.02,1.22.6,1.21,1.28-.02.68-.59,1.23-1.27,1.22Z"/>
    <path class="cls-1" d="m318.05,69.8c-3.85,0-6.92,3.07-6.91,6.92,0,3.76,3.1,6.82,6.88,6.83,3.76,0,6.86-3.1,6.85-6.86,0-3.79-3.07-6.88-6.83-6.88Z"/>
  </g>
  <g>
    <path class="cls-4" d="m396.02,57.72c0-3.08-1.67-4.74-4.76-4.74-11.37,0-22.74,0-34.11,0-3.08,0-4.74,1.66-4.74,4.76,0,11.37,0,22.74,0,34.11,0,3.08,1.68,4.74,4.76,4.74,11.37,0,22.74,0,34.11,0,3.07,0,4.74-1.68,4.74-4.76,0-5.65,0-11.3,0-16.95s0-11.45,0-17.17Zm-7.87,31.01c-.48.8-1.58.98-2.29.38-.11-.09-.21-.19-.31-.3-2.22-2.31-4.44-4.61-6.65-6.92-.07-.07-.11-.15-.14-.19-.76.4-1.43.82-2.16,1.12-3.24,1.37-6.49,1.37-9.68-.13-3.34-1.57-5.52-4.17-6.47-7.73-.84-3.15-.42-6.18,1.25-8.99,1.77-2.98,4.38-4.83,7.75-5.6.55-.12,1.11-.17,1.66-.26h1.55c.6.1,1.21.15,1.8.29,3.67.88,6.42,2.99,8.05,6.39,1.98,4.12,1.57,8.12-.91,11.93-.19.29-.41.55-.64.85.07.07.14.15.21.22,2.22,2.31,4.44,4.61,6.65,6.92.6.62.71,1.35.32,2Z"/>
    <path class="cls-4" d="m371.9,63.22c-4.82,0-8.74,3.92-8.75,8.75,0,4.82,3.88,8.72,8.74,8.76,4.8.04,8.77-3.94,8.76-8.76,0-4.83-3.93-8.75-8.75-8.75Z"/>
  </g>
  <polygon class="cls-3" points="458.5 269.6 35.5 302.6 35.5 115.6 458.5 115.6 458.5 269.6"/>
  <polygon class="cls-2" points="453 262.1 30 295.1 30 108.1 453 108.1 453 262.1"/>
  <g>
    <g>
      <path class="cls-4" d="m42.04,256.05v-112.52h88.48c13.34,0,24.2,10.79,24.2,24.04v28.33c0,13.26-10.85,24.04-24.2,24.04l-61.41.15v.92h-.46v35.04h-26.61Zm85.76-62.87v-23.05h-59.15v23.05h59.15Z"/>
      <path class="cls-3" d="m130.52,145.02c12.49,0,22.7,10.21,22.7,22.54v28.33c0,12.34-10.21,22.54-22.7,22.54l-63.37.15c.3,0,.46.3.46.91,0,0-.3,0-.46-.15v35.19h-23.61v-109.52h86.98m-63.37,49.66h62.15v-26.05h-62.15v26.05m63.37-52.66H40.54v115.52h29.61v-35.04h.46v-.92l59.92-.14c14.16,0,25.69-11.46,25.69-25.54v-28.33c0-14.09-11.53-25.54-25.7-25.54h0Zm-60.37,29.61h56.15v20.05h-56.15v-20.05h0Z"/>
    </g>
    <g>
      <polygon class="cls-4" points="161.68 256.05 161.68 143.22 188.29 143.22 188.29 229.29 274.36 229.29 274.36 256.05 161.68 256.05"/>
      <path class="cls-3" d="m186.79,144.72v86.07h86.07v23.76h-109.68v-109.83h23.61m3-3h-29.61v115.83h115.68v-29.76h-86.07v-86.07h0Z"/>
    </g>
    <g>
      <path class="cls-4" d="m291.25,256.05v-35.34h-59.15v6.89h-26.61v-60.18c0-13.26,10.79-24.04,24.04-24.04h64.43c13.34,0,24.2,10.85,24.2,24.2v61.48h115.33v1.5c0,14.06-11.44,25.5-25.5,25.5h-116.75Zm0-62.1v-23.81h-59.15v23.81h59.15Z"/>
      <path class="cls-3" d="m293.97,144.87c12.48,0,22.7,10.21,22.7,22.7v62.98h115.33c0,13.25-10.75,24-24,24h-115.25v-35.34h-62.15v6.89h-23.61v-58.68c0-12.45,10.09-22.54,22.54-22.54h64.43m-63.37,50.57h62.15v-26.81h-62.15v26.81m63.37-53.57h-64.43c-14.09,0-25.54,11.46-25.54,25.54v61.68h29.61v-6.89h56.15v35.34h118.25c14.89,0,27-12.11,27-27v-3h-115.33v-59.98c0-14.17-11.53-25.7-25.7-25.7h0Zm-60.37,29.76h56.15v20.81h-56.15v-20.81h0Z"/>
    </g>
    <g>
      <path class="cls-4" d="m369.12,227.6v-13.68l-19.66-26.41c-10.07-13.43-23.54-31.95-30.78-41.9l-1.73-2.38h31.85l33.7,42.35c2.78-3.5,5.61-7.06,8.48-10.66,8.24-10.36,16.76-21.07,24.62-31.11l.45-.58h32.19l-52.35,70.85v13.53h-26.76Z"/>
      <path class="cls-3" d="m445.26,144.72l-50.88,68.85v12.52h-23.76v-12.68l-19.96-26.81c-9.6-12.8-22.24-30.16-30.77-41.89h28.18l34.43,43.26c11.12-14.01,23.31-29.25,34.27-43.26h28.49m5.95-3h-35.89l-.9,1.15c-7.86,10.04-16.37,20.75-24.61,31.1-2.46,3.09-4.9,6.16-7.3,9.19l-32.08-40.31-.9-1.13h-35.52l3.46,4.76c7.24,9.95,20.71,28.48,30.8,41.93l19.36,26v14.68h29.76v-14.53l50.29-68.06,3.53-4.78h0Z"/>
    </g>
  </g>
  <g>
    <path class="cls-1" d="m32.72,67.52v-25.07h90.23v25.07h-41.15v63.8h-30.77v-63.8h-18.3Z"/>
    <path class="cls-1" d="m140.35,131.32v-14.49h-17.38v14.49h-30.77v-56.99h30.77v17.43h17.38v-49.65h30.77v89.21h-30.77Z"/>
    <path class="cls-1" d="m181.73,131.32v-56.99h30.77v56.99h-30.77Z"/>
    <path class="cls-1" d="m290.76,68.05c-12.47-1.33-21.53-1.99-27.19-1.99s-8.95.16-9.88.46c-.93.31-1.39.95-1.39,1.92s.53,1.72,1.59,2.26c1.06.53,4.4,1.42,10.01,2.65,5.61,1.24,10.21,2.45,13.79,3.65,3.58,1.19,6.81,2.87,9.68,5.04,2.87,2.17,4.77,4.82,5.7,7.96.93,3.14,1.39,7.36,1.39,12.67,0,10.97-2.92,18.79-8.75,23.48-5.84,4.69-14.64,7.03-26.4,7.03-5.66,0-11.61-.4-17.84-1.19-6.23-.8-11.03-1.59-14.39-2.39l-5.17-1.19,1.33-23.48c13.53,1.95,24.63,2.92,33.29,2.92,4.6,0,6.9-1.02,6.9-3.05,0-.88-.53-1.53-1.59-1.92-1.06-.4-3.94-.95-8.62-1.66-12.38-1.94-20.8-4.97-25.27-9.09-4.47-4.11-6.7-10.85-6.7-20.23,0-11.94,2.87-20.12,8.62-24.54,5.75-4.42,14.59-6.63,26.53-6.63,8.4,0,18.26.84,29.58,2.52l5.57.93-.8,23.87Z"/>
    <circle class="cls-1" cx="197.41" cy="53.87" r="16.98"/>
  </g>
  <g>
    <path class="cls-4" d="m26.5,62.43v-25.07h90.23v25.07h-41.15v63.8h-30.77v-63.8h-18.3Z"/>
    <path class="cls-4" d="m134.12,126.23v-14.49h-17.38v14.49h-30.77v-56.99h30.77v17.43h17.38v-49.65h30.77v89.21h-30.77Z"/>
    <path class="cls-4" d="m175.51,126.23v-56.99h30.77v56.99h-30.77Z"/>
    <path class="cls-4" d="m284.54,62.96c-12.47-1.33-21.53-1.99-27.19-1.99s-8.95.16-9.88.46c-.93.31-1.39.95-1.39,1.92s.53,1.72,1.59,2.26c1.06.53,4.4,1.42,10.01,2.65,5.61,1.24,10.21,2.45,13.79,3.65,3.58,1.19,6.81,2.87,9.68,5.04,2.87,2.17,4.77,4.82,5.7,7.96.93,3.14,1.39,7.36,1.39,12.67,0,10.97-2.92,18.79-8.75,23.48-5.84,4.69-14.64,7.03-26.4,7.03-5.66,0-11.61-.4-17.84-1.19-6.23-.8-11.03-1.59-14.39-2.39l-5.17-1.19,1.33-23.48c13.53,1.95,24.63,2.92,33.29,2.92,4.6,0,6.9-1.02,6.9-3.05,0-.88-.53-1.53-1.59-1.92-1.06-.4-3.94-.95-8.62-1.66-12.38-1.94-20.8-4.97-25.27-9.09-4.47-4.11-6.7-10.85-6.7-20.23,0-11.94,2.87-20.12,8.62-24.54,5.75-4.42,14.59-6.63,26.53-6.63,8.4,0,18.26.84,29.58,2.52l5.57.93-.8,23.87Z"/>
    <circle class="cls-4" cx="191.18" cy="48.77" r="16.98"/>
  </g>
  <path class="cls-1" d="m412.7,35.55c4.42.04,7.78,2.04,10.27,5.61,1.73,2.47,2.78,5.23,3.38,8.17.17.86-.15,1.57-.84,1.9-.64.31-1.47.15-1.9-.43-.18-.24-.3-.56-.37-.86-.5-2.35-1.31-4.57-2.63-6.59-2.52-3.87-6.04-5.3-10.55-4.31-1.66.36-3.23.98-4.75,1.74-1.1.54-2.03.32-2.47-.56-.35-.72-.13-1.75,1.06-2.31,2.48-1.15,5-2.09,7.75-2.31.16-.01.32-.03.48-.03.19,0,.38,0,.57,0Z"/>
  <path class="cls-4" d="m453.88,35.54c2.55.03,5.27.9,7.89,2.12.27.13.55.26.82.4.82.44,1.13,1.35.74,2.16-.38.78-1.29,1.1-2.13.69-1.63-.79-3.28-1.5-5.05-1.88-2.5-.54-4.92-.46-7.18.9-1.92,1.16-3.22,2.87-4.22,4.84-.85,1.66-1.45,3.4-1.8,5.23-.18.95-.97,1.51-1.88,1.34-.84-.15-1.44-.95-1.25-1.85.85-4.17,2.45-7.96,5.65-10.9,2.22-2.04,4.95-3.05,8.42-3.06Z"/>
  <path class="cls-4" d="m431.46,45.92c0,.45,0,.89,0,1.34-.01.95-.68,1.64-1.57,1.65-.89,0-1.54-.68-1.61-1.62-.13-1.76-.18-3.54-.47-5.28-.84-5.04-2.94-9.48-6.61-13.11-.55-.55-1.17-1.04-1.79-1.51-.81-.62-1.04-1.54-.52-2.3.53-.77,1.52-.91,2.37-.3,2.3,1.65,4.14,3.73,5.67,6.1,2.85,4.42,4.2,9.3,4.48,14.51,0,.18.02.35.03.53,0,0,.01,0,.02,0Z"/>
  <path class="cls-1" d="m434.71,45.85c.24-5.16,1.49-10.03,4.21-14.46,1.58-2.58,3.53-4.85,6.01-6.62.88-.63,1.96-.42,2.43.46.37.67.22,1.51-.4,1.98-5.25,4-7.87,9.46-8.78,15.85-.19,1.37-.22,2.77-.29,4.15-.05,1.01-.7,1.71-1.63,1.69-.9-.02-1.54-.73-1.55-1.72,0-.45,0-.89,0-1.34Z"/>
  <path class="cls-4" d="m417.55,47.3c.98,0,1.76.79,1.76,1.77,0,.98-.79,1.77-1.76,1.77-1,0-1.8-.81-1.78-1.8.02-.98.81-1.75,1.79-1.74Z"/>
  <path class="cls-1" d="m448.66,50.84c-1.01,0-1.79-.78-1.79-1.79,0-.98.79-1.75,1.78-1.75.97,0,1.77.8,1.77,1.76,0,.97-.8,1.77-1.76,1.78Z"/>
  <path class="cls-2" d="m413.03,33.12c-.97,0-1.76-.8-1.76-1.77,0-.97.79-1.77,1.76-1.77,1,0,1.8.79,1.78,1.79-.01.98-.8,1.75-1.78,1.75Z"/>
  <path class="cls-2" d="m447.15,29.58c.98,0,1.76.79,1.76,1.77,0,.97-.8,1.77-1.76,1.77-1,0-1.79-.79-1.78-1.8,0-.98.79-1.75,1.78-1.74Z"/>
  <g>
    <path class="cls-2" d="m445.13,61.82c-8.14.02-16.28.02-24.42,0-.61,0-.75.19-.75.77.02,8.14.02,16.28,0,24.42,0,.61.19.75.77.75,4.07-.02,8.14-.01,12.21-.01,4.07,0,8.14-.01,12.21.01.6,0,.76-.18.76-.77-.02-8.14-.02-16.28,0-24.42,0-.62-.21-.75-.78-.75Zm-3.83,12.85c-.73.74-1.43,1.51-2.17,2.24-.27.27-.38.53-.32.92.16,1.12.29,2.25.41,3.38.18,1.65-1.27,2.72-2.78,2.03-1.03-.47-2.04-1.01-3.07-1.47-.24-.11-.61-.11-.84,0-1.07.48-2.11,1.04-3.18,1.51-1.35.6-2.77-.37-2.72-1.91.13-1.12.27-2.33.43-3.53.05-.38-.03-.65-.31-.92-.73-.72-1.41-1.48-2.13-2.2-.59-.59-.87-1.27-.61-2.09.25-.8.85-1.19,1.64-1.36,1.04-.21,2.06-.47,3.1-.67.45-.08.7-.31.91-.7.5-.91,1.02-1.81,1.54-2.71.85-1.44,2.59-1.45,3.45,0,.56.94,1.08,1.91,1.65,2.85.14.23.43.45.69.51,1.08.28,2.18.5,3.27.73.8.17,1.38.58,1.61,1.39.23.78-.03,1.43-.58,2Z"/>
    <path class="cls-2" d="m432.93,71.96c-.6,1.5-1.63,2.3-3.29,2.4,1.35,1.02,1.62,2.33,1.26,3.9,1.39-1,2.7-.92,4.08-.02-.41-1.59-.07-2.86,1.26-3.88-1.64-.11-2.72-.87-3.31-2.4Z"/>
    <path class="cls-2" d="m449.96,53.06c-11.29-.05-22.59-.11-33.88-.15-3.23-.01-4.86,1.61-4.88,4.85-.03,5.61-.05,11.22-.08,16.83-.03,5.69-.05,11.37-.08,17.06-.01,3.23,1.61,4.86,4.86,4.87,11.3.05,22.59.11,33.88.15,3.23.01,4.86-1.61,4.88-4.85.05-11.3.11-22.59.16-33.89.01-3.22-1.62-4.86-4.86-4.87Zm-2.34,39.18c-9.81,0-19.63,0-29.44,0-1.86,0-2.71-.83-2.71-2.68,0-9.86,0-19.72,0-29.58,0-1.78.84-2.64,2.61-2.64,4.95,0,9.9,0,14.86,0,4.88,0,9.77,0,14.65,0,2.02,0,2.81.78,2.81,2.78,0,9.79,0,19.58,0,29.37,0,1.95-.81,2.74-2.78,2.74Z"/>
  </g>
  <path class="cls-3" d="m410.53,77.69c-.97-.02-1.94-.01-2.91,0-.83,0-1.38.56-1.39,1.39,0,.64,0,1.28,0,1.93,0,1.2,0,2.4,0,3.61,0,.17.05.38-.24.37-.41,0-.81,0-1.21,0-.25-1.08-.63-1.5-1.43-1.51-1.39-.02-2.79-.02-4.18,0-.8.01-1.34.59-1.35,1.4-.01.98-.01,1.97,0,2.95,0,.8.57,1.38,1.36,1.39,1.39.02,2.79.01,4.18,0,.71,0,1.21-.46,1.34-1.15.02-.11.04-.21.06-.37.86,0,1.72,0,2.58,0,1.1,0,1.6-.5,1.6-1.6,0-1.76,0-3.52,0-5.29,0-.32.08-.45.41-.42.37.03.74.03,1.11,0,.33-.03.48.05.52.32v-3.32c-.03.23-.14.31-.44.3Z"/>
</svg>