<?xml version="1.0" encoding="UTF-8"?>
<svg id="Capa_1" data-name="Capa 1" xmlns="http://www.w3.org/2000/svg" viewBox="0 0 460 418">
  <defs>
    <style>
      .cls-1 {
        fill: #fff;
        stroke-width: 0px;
      }
    </style>
  </defs>
  <path class="cls-1" d="m242.1,17.91c7.42,6.21,14.77,12.5,22.27,18.6,51.61,42.03,103.25,84.02,154.87,126.03.66.54,1.26,1.14,2.26,2.06-59.88,48.91-119.58,97.66-179.89,146.92v-90.96c-8.87,1.11-17.3,1.66-25.52,3.27-66.66,13.04-116.59,49.17-148.02,109.44-10.21,19.59-17.78,40.54-26.59,60.86-.88,2.03-1.99,3.96-2.99,5.94,0-29.67,0-59.33,0-89,.21-1.09.55-2.17.62-3.27,1.54-25.51,7.27-50.09,18.28-73.12,32.63-68.25,86.23-109.58,160.8-123.39,7.57-1.4,15.28-1.98,23.16-2.97V17.91c.25,0,.5,0,.75,0Z"/>
</svg>