<?xml version="1.0" encoding="UTF-8"?>
<svg id="Capa_1" data-name="Capa 1" xmlns="http://www.w3.org/2000/svg" viewBox="0 0 460 418">
  <defs>
    <style>
      .cls-1 {
        stroke-width: 0px;
      }
    </style>
  </defs>
  <path class="cls-1" d="m51.36,205.51c1.52-8.02,6.45-13.82,12.05-19.41,40.61-40.45,81.1-81.02,121.63-121.54,8.53-8.53,19.52-10.98,29.31-6.58,15.44,6.94,20,26.4,9.24,39.52-1.32,1.61-2.79,3.12-4.26,4.6-19.15,19.16-38.28,38.34-57.48,57.45-8.94,8.9-17.1,18.79-29.65,23.19.08.3.16.6.24.9h3.91c81.15,0,162.3.03,243.45-.04,8.12,0,15.52,1.58,21.27,7.66,7.16,7.57,9.56,16.54,5.8,26.35-3.91,10.21-11.77,15.84-22.7,16.98-2.07.22-4.18.16-6.27.16-80.57,0-161.14,0-241.71,0-1.33,0-2.66,0-3.68,0,5.49,3.74,11.04,7.4,16.43,11.28,2.05,1.48,3.78,3.44,5.58,5.25,21.92,21.98,43.78,44.02,65.75,65.95,7.7,7.69,11.03,16.66,8.12,27.26-4.54,16.54-25.31,23.13-38.87,12.52-1.83-1.43-3.54-3.02-5.18-4.66-40.21-40.19-80.38-80.43-120.66-120.55-5.61-5.59-10.62-11.35-12.32-19.33v-6.98Z"/>
</svg>