<?xml version="1.0" encoding="UTF-8"?>
<svg id="Capa_1" data-name="Capa 1" xmlns="http://www.w3.org/2000/svg" viewBox="0 0 59 55">
  <defs>
    <style>
      .cls-1 {
        fill: #fcae00;
        stroke-width: 0px;
      }
    </style>
  </defs>
  <path class="cls-1" d="m51.31,10.43c0-3.08-1.67-4.74-4.76-4.74-11.37,0-22.74,0-34.11,0-3.08,0-4.74,1.66-4.74,4.76,0,11.37,0,22.74,0,34.11,0,3.08,1.68,4.74,4.76,4.74,11.37,0,22.74,0,34.11,0,3.07,0,4.74-1.68,4.74-4.76,0-5.65,0-11.3,0-16.95s0-11.45,0-17.17Zm-7.87,31.01c-.48.8-1.58.98-2.29.38-.11-.09-.21-.19-.31-.3-2.22-2.31-4.44-4.61-6.65-6.92-.07-.07-.11-.15-.14-.19-.76.4-1.43.82-2.16,1.12-3.24,1.37-6.49,1.37-9.68-.13-3.34-1.57-5.52-4.17-6.47-7.73-.84-3.15-.42-6.18,1.25-8.99,1.77-2.98,4.38-4.83,7.75-5.6.55-.12,1.11-.17,1.66-.26h1.55c.6.1,1.21.15,1.8.29,3.67.88,6.42,2.99,8.05,6.39,1.98,4.12,1.57,8.12-.91,11.93-.19.29-.41.55-.64.85.07.07.14.15.21.22,2.22,2.31,4.44,4.61,6.65,6.92.6.62.71,1.35.32,2Z"/>
  <path class="cls-1" d="m27.19,15.92c-4.82,0-8.74,3.92-8.75,8.75,0,4.82,3.88,8.72,8.74,8.76,4.8.04,8.77-3.94,8.76-8.76,0-4.83-3.93-8.75-8.75-8.75Z"/>
</svg>