<?xml version="1.0" encoding="UTF-8"?>
<svg id="Capa_1" data-name="Capa 1" xmlns="http://www.w3.org/2000/svg" viewBox="0 0 1173 661">
  <defs>
    <style>
      .cls-1 {
        fill: #f8c016;
      }

      .cls-1, .cls-2, .cls-3, .cls-4, .cls-5, .cls-6, .cls-7, .cls-8, .cls-9, .cls-10, .cls-11, .cls-12, .cls-13, .cls-14, .cls-15, .cls-16, .cls-17, .cls-18, .cls-19, .cls-20, .cls-21, .cls-22, .cls-23, .cls-24, .cls-25, .cls-26, .cls-27 {
        stroke-width: 0px;
      }

      .cls-2 {
        fill: #f8c014;
      }

      .cls-3 {
        fill: #f8c015;
      }

      .cls-4 {
        fill: #f8bf13;
      }

      .cls-5 {
        fill: #f8bf12;
      }

      .cls-6 {
        fill: #f7be13;
      }

      .cls-7 {
        fill: #f7bf13;
      }

      .cls-8 {
        fill: #2b97d4;
      }

      .cls-9 {
        fill: #467cbf;
      }

      .cls-10 {
        fill: #9691c6;
      }

      .cls-11 {
        fill: #39b8f1;
      }

      .cls-12 {
        fill: #57509d;
      }

      .cls-13 {
        fill: #427ec1;
      }

      .cls-14 {
        fill: #0b94d0;
      }

      .cls-15 {
        fill: #0a94d0;
      }

      .cls-16 {
        fill: #4184c6;
      }

      .cls-17 {
        fill: #a7ddf8;
      }

      .cls-18 {
        fill: #f4236c;
      }

      .cls-19 {
        fill: #f0256d;
      }

      .cls-20 {
        fill: #f0246d;
      }

      .cls-21 {
        fill: #ef256d;
      }

      .cls-22 {
        fill: #fbdd92;
      }

      .cls-23 {
        fill: #fefefe;
      }

      .cls-24 {
        fill: #f1246d;
      }

      .cls-25 {
        fill: #eeeeed;
      }

      .cls-26 {
        fill: #eee;
      }

      .cls-27 {
        fill: #ee256d;
      }
    </style>
  </defs>
  <path class="cls-12" d="m-1.96,331.5c0-109.72,0-219.44-.04-329.15C-2,.56-1.73,0,.25,0,391.08.05,781.92.05,1172.75,0c1.98,0,2.25.56,2.25,2.35-.05,110.05-.04,220.1-.04,330.15-1.53,2.78-4.32,4.11-6.83,5.67-19.87,12.43-41.23,21.01-64.53,24.3-12.22,1.73-24.5,2.09-36.86,1.38-24.7-1.43-48.55-7.15-72.28-13.62-23.55-6.42-46.81-13.85-70.56-19.56-16.13-3.88-32.43-6.9-48.97-8.31-11.45-.98-22.94-.88-34.43-.22-29.56,1.68-58.1,8.58-86.43,16.6-24.69,6.99-49.13,14.83-73.97,21.25-19.37,5-38.94,9.04-58.86,11.14-13.26,1.4-26.58,2.08-39.9,1.52-18.09-.76-35.96-3.34-53.63-7.3-20.02-4.48-39.63-10.39-59.23-16.41-23.09-7.1-46.18-14.25-69.94-18.85-11.2-2.17-22.5-3.65-33.9-4.47-9-.64-18-.67-26.97-.25-17.87.84-35.35,4.19-52.51,9.31-25.14,7.51-50.18,15.36-75.53,22.17-20.69,5.55-41.55,10.31-62.87,12.79-12.18,1.42-24.41,2.05-36.65,1.52-21.62-.93-42.61-5.14-62.86-12.89-15.7-6.01-30.53-13.69-44.81-22.51-1.78-1.1-3.54-2.21-4.42-4.25Z"/>
  <path class="cls-23" d="m-1.96,331.5c13.98,8.92,28.43,16.96,43.8,23.28,28.66,11.79,58.43,16.65,89.36,14.89,27.76-1.58,54.65-7.69,81.36-14.94,26.25-7.12,52.12-15.54,78.29-22.93,26.26-7.42,53.01-9.44,80.17-6.95,27.93,2.57,54.81,9.84,81.52,17.89,23.8,7.18,47.45,14.9,71.7,20.53,24.6,5.72,49.47,8.95,74.77,8.13,23.14-.74,45.87-4.36,68.38-9.63,27.64-6.46,54.64-15.17,81.89-23,21.28-6.12,42.69-11.64,64.6-15.08,29.39-4.61,58.7-4.44,87.99,1,26.96,5.01,53.15,12.97,79.45,20.52,19.83,5.69,39.73,11.13,60.12,14.53,31.37,5.23,62.34,4.78,92.63-6.19,13.69-4.96,26.47-11.66,38.55-19.76.74-.5,1.35-1.26,2.35-1.3,0,108.72,0,217.44.04,326.15,0,1.79-.27,2.35-2.25,2.35-390.84-.05-781.67-.05-1172.51,0-1.98,0-2.25-.56-2.25-2.35.05-109.05.04-218.1.04-327.15Z"/>
  <path class="cls-5" d="m774.63,189.28c24.44-11.93,49.34-21.33,76.08-25.04,15.59-2.16,31.13-2.15,46.04,3.78,11.82,4.71,21.67,12.28,29.85,22.01,2.04,2.43,3.68,5.15,4.79,8.15,2.63,7.05.42,12.57-6.23,16.1-4.08,2.17-8.08,2.24-12.18.2-3.74-1.87-7.14-4.28-10.52-6.7-11.03-7.86-22.7-14.54-35.44-19.24-17.13-6.32-34.87-7.63-52.9-6.25-12.66.97-25.06,3.37-37.21,7.02-.65.2-1.28.36-2.27-.03Z"/>
  <path class="cls-11" d="m750.48,164.97c11.89-25.12,25.34-49.12,44.19-69.65,4.69-5.11,9.88-9.67,15.76-13.39,8.35-5.28,17.43-7.46,27.21-5.88,9.74,1.57,13.75,9.02,9.88,18.08-2.83,6.62-7.97,11.19-13.85,15.02-2.66,1.73-5.44,3.27-8.42,4.36-17.43,6.37-32.68,16.43-47.23,27.69-9.16,7.09-17.94,14.64-26.29,22.67-.41.39-.85.74-1.27,1.11Z"/>
  <path class="cls-18" d="m710.8,156.24c-1.01-.83-.98-1.9-1.26-2.8-3.54-11.3-7.77-22.3-13.45-32.72-2.52-4.62-5.47-8.93-8.75-13.04-3-3.75-5.2-7.92-6.05-12.71-.06-.33-.15-.65-.18-.98-.28-3.68-.12-7.34,3.2-9.7,3.42-2.43,6.85-1.07,10.09.71,5.67,3.11,9.26,7.97,11.55,13.91,3.05,7.93,4.27,16.23,4.97,24.62.89,10.55.71,21.12.02,31.68-.02.3-.08.59-.14,1.04Z"/>
  <path class="cls-5" d="m52.52,41.96c.05,9.07-7.27,16.55-16.21,16.57-8.94.02-16.28-7.44-16.26-16.51.02-8.96,7.25-16.36,16.08-16.45,8.94-.09,16.33,7.31,16.38,16.39Z"/>
  <path class="cls-11" d="m182.1,77.66c2.13.9,2.39,2.41,1.84,4.53-.96,3.74-1.62,7.55-2.5,11.75-2.79-2.41-5.27-4.55-7.75-6.7-1.05.17-1.91-.1-2.73-.84-7.48-6.6-15.12-13.01-22.41-19.82-2.19-2.04-4.11-4.37-6.18-6.54-1.09-1.22-.42-1.29.71-1.13,4.19.6,8.39,1.17,12.57,1.79,9.61,1.42,19.2,2.93,28.82,4.26,1.96.27,2.65.84,2,2.82-.57,1.73-.92,3.53-1.36,5.3-.2.82-.3,1.71-1.49,1.59-.65.87-1.51.61-2.36.47-.92-.1-1.78-.43-2.65-.73-.53-.21-1.1-.34-1.62-.58-.84-.29-1.66-.63-2.49-.96-1.35-.47-2.66-1.04-3.98-1.59-.85-.33-1.7-.68-2.49-1.13-5.52-2.28-10.89-4.88-16.43-7.11-1.24-.83-2.7-1.15-3.84-1.64.67.32,1.63.52,2.5.96,7.68,3.38,15.33,6.85,23.07,10.1,2.45,1.03,4.79,2.25,7.15,3.46.74.38,1.49.77,1.62,1.73Z"/>
  <path class="cls-10" d="m811.18,224.91c5.4.68,10.17,1.78,14.89,3.03,7.82,2.07,15.52,4.49,22.53,8.68,4.89,2.92,8.66,6.73,10.03,12.49,1.34,5.66-2.05,8.99-7.7,7.52-3.79-.98-6.85-3.21-9.14-6.22-7.43-9.72-17.17-16.62-27.37-23.01-.96-.6-2.1-.98-3.23-2.48Z"/>
  <path class="cls-5" d="m966.44,40.91c2,.66,4.16,1.27,6.25,2.08,1.47.56,2.61.49,3.84-.62,1.48-1.34,3.13-2.47,4.74-3.66,1.51-1.12,2.32-.61,2.37,1.17.06,1.91.11,3.83,0,5.74-.1,1.66.33,2.82,1.87,3.68,1.66.93,3.2,2.1,4.74,3.24,1.67,1.23,1.64,2.41-.24,2.68-6.18.9-9.35,4.31-10.12,10.44-.23,1.81-1.79,1.84-2.55.29-2.68-5.47-6.86-7.65-12.84-6.39-.63.13-1.37.11-1.77-.6-.48-.85.08-1.51.59-1.98,4.35-4.03,4.95-8.56,2.03-13.67-.58-1.02-.77-2.13,1.09-2.4Z"/>
  <path class="cls-18" d="m112.01,308.15c-.09,1.91-1.14,3.85-2.75,5.52-3.08,3.21-7,5-11.1,6.48-.59.21-1.11.25-1.66-.08-4.11-2.45-7.98-5.18-10.33-9.51-1.34-2.46-1.66-5.05-.21-7.63,2.23-3.97,7.55-4.64,11.42-1.25,1.24,1.08,1.97,1.07,3.35.3,5.38-2.99,11.38.11,11.28,6.17Z"/>
  <path class="cls-5" d="m974.46,295.61c-.15,9.86-9.82,17.86-18.74,15.38-4.64-1.29-7.9-4.19-9.04-9.06-.2-.87-.13-1.82-.1-2.73.02-.52.36-.96.92-1.02.59-.07.89.33,1,.88.07.33.1.66.18.98,1.95,7.73,9.63,10.83,16.42,6.63,5.09-3.15,7.57-9.37,5.85-14.67-1.11-3.42-4.03-5.71-7.57-5.95-4.93-.33-8.07,3.8-6.29,8.4.54,1.39,1.07,3.11,3.37,1.99,1.04-.51,2,.2,2.24,1.34.28,1.37-.5,2.31-1.75,2.61-1.99.48-3.62-.45-4.88-1.87-2.6-2.94-3.26-6.34-1.78-9.99,1.46-3.62,4.37-5.37,8.2-5.49,6.86-.2,12.08,5.33,11.97,12.57Z"/>
  <path class="cls-7" d="m270.44,134c-15.54-.49-29.85-5.39-43.61-12.24-6.52-3.24-12.49-7.3-18.11-11.91-5.21-4.28-10.38-8.62-16.4-11.78-.72-.38-1.64-.82-.99-1.88.62-1.01,1.44-.47,2.18-.09,5.5,2.87,10.35,6.68,15.05,10.67,14.97,12.71,32.33,20.23,51.45,24,4.77.94,9.6.93,14.44.84.95-.02,2.33-.34,2.41,1.04.1,1.6-1.4,1.3-2.42,1.35-1.33.06-2.66.01-4,.01Z"/>
  <path class="cls-15" d="m142.37,60.05c4.51,3.13,8.32,7.07,12.47,10.62,6.36,5.44,12.58,11.04,18.85,16.57-1.74,1.78-3.52,3.53-5.2,5.37-.82.9-1.37,1.29-2.28.05-7.93-10.89-15.9-21.75-23.85-32.61Z"/>
  <path class="cls-4" d="m547.05,91.08c-.18-1.19.31-1.67,1.51-1.63,2.58.08,5.16,0,7.73.12,1.27.06,1.94-.35,2.43-1.55,1.19-2.92,2.59-5.75,3.77-8.68.6-1.49,1.32-1.98,2.99-1.61,3.56.79,7.21,1.21,10.77,2.03,1.68.38,2.22-.2,2.57-1.65.39-1.61.97-3.17,1.41-4.78.29-1.07.56-1.88,1.99-1.26,1.1.48,1.84.84,1.31,2.3-.92,2.58-1.72,5.21-2.41,7.85-.35,1.35-.91,1.69-2.27,1.41-3.74-.76-7.53-1.32-11.28-2.06-1.53-.3-2.43,0-3.04,1.59-1.11,2.86-2.45,5.63-3.66,8.46-.39.92-.86,1.46-2,1.41-3.41-.14-6.82-.19-10.22-.2-1.3,0-1.87-.47-1.6-1.77Z"/>
  <path class="cls-6" d="m210.38,121.97c-11.74-.3-27.31-12.77-30.08-23.98-.23-.93-.54-1.92.64-2.3.97-.32,1.23.6,1.46,1.31,4.18,13.28,14.51,19.16,27,22.45.4.11.83.09,1.23.2.75.21,1.53.53,1.27,1.5-.2.74-.87.94-1.5.82Z"/>
  <path class="cls-14" d="m151.57,62.56c5.77,1.84,11.1,4.85,16.94,6.51.81.43,1.77.47,2.51,1.06,1.28.61,2.53,1.3,3.98,1.44.82.44,1.82.45,2.54,1.11.48.13.95.26,1.42.39.92.38,1.88.67,2.83.99.62.22,1.24.44,1.85.65.82,1.67-.81,2.08-1.53,2.96-3.34-.84-6.23-2.72-9.3-4.15-7.68-3.56-15.27-7.29-22.9-10.95.56-.36,1.11-.38,1.67,0Z"/>
  <path class="cls-20" d="m77.79,303.98c-3.73-.62-7.58-1.22-11.32-2.34-.85-.25-1.62-.72-1.24-1.76.31-.84,1.08-.92,1.89-.71,3.61.93,7.27,1.61,10.97,2.12.89.12,1.96.39,1.77,1.62-.16,1.01-1.1,1.1-2.08,1.08Z"/>
  <path class="cls-24" d="m85.6,285.17c-.05-1.23.16-1.85.93-2.03.78-.19,1.34.27,1.54.93.84,2.76,1.63,5.54,2.37,8.33.19.72-.24,1.3-.99,1.48-.75.18-1.38-.18-1.58-.87-.85-2.76-1.61-5.55-2.27-7.85Z"/>
  <path class="cls-21" d="m124.59,318.5c-2.38-.36-4.68-.69-6.96-1.06-.76-.12-1.58-.39-1.45-1.35.15-1.1,1.07-1.12,1.93-1.01,2.22.28,4.44.56,6.65.91.94.15,2.26.26,2.04,1.6-.18,1.13-1.42.85-2.21.91Z"/>
  <path class="cls-19" d="m90.6,332.99c.37-2.24,1.11-4.34,2.45-6.17.58-.79,1.32-1.77,2.43-.98,1.06.75.28,1.68-.21,2.38-1.11,1.6-1.87,3.31-2.2,5.22-.14.79-.4,1.55-1.35,1.44-1.04-.13-1.23-.96-1.12-1.88Z"/>
  <path class="cls-19" d="m83.9,317.97c-.13.73-.68.96-1.21,1.19-2.14.91-4.18,1.99-5.79,3.73-.58.62-1.26.79-1.94.1-.61-.63-.33-1.21.14-1.75,1.86-2.1,4.07-3.63,6.87-4.15.81-.15,1.69-.21,1.93.89Z"/>
  <path class="cls-21" d="m106,288.22c-.4,1.89-1.01,3.87-2.02,5.71-.33.6-.79,1.21-1.56.91-.83-.33-.96-1.04-.66-1.87.64-1.8,1.22-3.61,1.88-5.4.25-.69.56-1.57,1.5-1.35.87.21.89,1.08.87,2.01Z"/>
  <path class="cls-27" d="m117.07,301.41c-.71.06-1.11-.19-1.34-.68-.24-.52-.09-1.01.35-1.32,1.63-1.14,3.4-2.01,5.38-2.35.63-.11,1.14.23,1.4.8.24.54-.04,1.06-.48,1.27-1.79.82-3.62,1.56-5.3,2.28Z"/>
  <path class="cls-19" d="m107.75,324.09c.91.03,4.75,3.83,4.69,4.61-.11,1.26-.96,1.64-1.87.92-1.34-1.07-2.6-2.3-3.67-3.63-.76-.95-.13-1.66.85-1.9Z"/>
  <path class="cls-5" d="m394.37,465.12c-.17.96-1.06,1.02-1.68,1.31-22.17,10.58-45.09,18.97-69.46,22.82-15.69,2.48-31.38,2.96-46.68-2.23-13.18-4.46-23.93-12.57-32.87-23.13-1.51-1.78-2.73-3.78-3.74-5.89-4.16-8.72-1.12-15.84,8.06-18.91,3.4-1.14,6.57-.46,9.66,1.04,3.69,1.79,7,4.18,10.33,6.52,9.97,7.02,20.45,13.09,31.78,17.67,16.76,6.78,34.23,8.83,52.15,7.9,13.86-.72,27.43-3.13,40.76-6.97.55-.16,1.08-.45,1.68-.15Z"/>
  <path class="cls-11" d="m420.05,490.49c-10.87,22.26-23.09,43.7-39.02,62.82-5.78,6.93-12.1,13.29-19.62,18.38-8.62,5.84-18.08,8.35-28.43,6.78-9.8-1.49-13.93-9.1-9.96-18.2,2.87-6.59,8-11.15,13.89-14.97,2.59-1.68,5.29-3.2,8.18-4.25,18.07-6.56,33.78-17.11,48.79-28.84,8.93-6.97,17.47-14.4,25.62-22.27.48-.12.7.02.55.54Z"/>
  <path class="cls-18" d="m459.68,498.31c1.05.76.99,1.86,1.26,2.75,3.53,11.29,7.76,22.29,13.44,32.7,2.52,4.62,5.46,8.94,8.75,13.04,3.06,3.82,5.29,8.05,6.11,12.94.1.57.2,1.15.22,1.73.12,3.45-.3,6.78-3.43,8.88-3.19,2.13-6.42,1.03-9.45-.57-5.96-3.14-9.74-8.14-12.09-14.36-2.76-7.3-3.99-14.92-4.72-22.64-1.08-11.44-.96-22.88-.09-34.46Z"/>
  <path class="cls-5" d="m817.07,444.96c-9.05.06-16.55-7.28-16.56-16.2,0-8.83,7.3-16.13,16.27-16.25,9.06-.13,16.59,7.13,16.68,16.08.09,8.92-7.32,16.31-16.39,16.38Z"/>
  <path class="cls-10" d="m359.24,429.63c-6.5-.92-12.55-2.35-18.53-4.08-6.89-1.99-13.62-4.36-19.73-8.23-4.52-2.86-7.87-6.61-9.14-11.96-1.34-5.64,2.09-8.98,7.71-7.5,3.68.97,6.72,3.08,8.97,6.02,7.8,10.17,18.04,17.36,28.78,23.97.61.38,1.39.56,1.94,1.77Z"/>
  <path class="cls-5" d="m616.04,610.07c-.04,4.82-3.95,8.66-8.77,8.63-4.8-.02-8.72-3.94-8.73-8.72-.01-4.89,4.01-8.82,8.94-8.74,4.84.08,8.61,3.97,8.57,8.82Z"/>
  <path class="cls-11" d="m123.98,464.93c-7.32-1.27-14.02-2.44-20.71-3.6-1.26-.22-1.53-.63-.65-1.74,2.84-3.58,5.63-7.21,8.4-10.85.68-.89,1.17-1,1.86,0,3.55,5.21,7.13,10.4,11.11,16.18Z"/>
  <path class="cls-2" d="m618.85,618c.72,0,1.25.4,1.78.8,2.48,1.82,4.96,3.64,7.44,5.46,1.1.8,1.91,1.75,1.01,3.13-.86,1.32-2.01,1.21-3.24.43-2.89-1.82-5.76-3.67-8.06-6.23-.65-.72-1.03-1.52-.49-2.49.34-.62.85-1,1.57-1.09Z"/>
  <path class="cls-2" d="m586.6,613.04c-1.25-.04-2.17-.49-2.47-1.74-.32-1.32.43-2.12,1.6-2.39,2.99-.69,5.99-1.33,9.01-1.87,1.16-.2,1.87.66,2.13,1.7.33,1.27-.38,2.23-1.5,2.5-2.9.7-5.85,1.21-8.78,1.8Z"/>
  <path class="cls-3" d="m591.54,629.39c-.74.04-1.26-.3-1.67-.89-.52-.74-.35-1.46.18-2.05,2.01-2.23,4.55-3.85,6.88-5.7.73-.58,1.62-.29,2.28.32.65.6.94,1.36.62,2.26-.55,1.53-6.75,6.06-8.3,6.07Z"/>
  <path class="cls-2" d="m626.67,608.37c1.73.13,3.27-.2,4.78-.67,1.48-.47,2.52-.02,2.91,1.44.39,1.45-.59,2.08-1.84,2.45-2.25.66-4.55,1.06-6.89.78-1.43-.17-3.1-.58-2.97-2.36.12-1.74,1.79-1.63,3.13-1.64.33,0,.66,0,.88,0Z"/>
  <path class="cls-1" d="m613.48,635.22c-.02,1.62-.53,2.44-1.66,2.64-1.15.2-1.97-.4-2.22-1.5-.57-2.49-1.08-5.01-1.54-7.52-.21-1.13.36-1.96,1.46-2.26,1.17-.32,2,.35,2.27,1.39.67,2.55,1.21,5.14,1.69,7.25Z"/>
  <path class="cls-3" d="m618.01,600.42c-1.55-.03-2.43-1.49-1.74-2.95,1.07-2.28,2.85-4.08,4.43-6,.59-.72,1.5-.62,2.28-.11.77.5,1.28,1.31.89,2.12-1.23,2.56-2.84,4.87-5.09,6.66-.24.19-.61.22-.78.28Z"/>
  <path class="cls-1" d="m599.96,597.69c.01,1.65-1.44,2.67-2.76,1.99-1.68-.87-3.26-1.97-4.48-3.44-.58-.69-1.04-1.57-.32-2.47.74-.92,1.72-1.05,2.64-.42,1.5,1.01,2.94,2.12,4.34,3.26.34.28.45.84.58,1.09Z"/>
  <path class="cls-1" d="m605.01,588.69c.01-1.26.6-2.07,1.89-2.17,1.41-.1,3.59,3.03,3.55,5.15-.02,1.36-.84,2.16-2.17,2.24-1.56.1-3.32-2.79-3.27-5.22Z"/>
  <path class="cls-22" d="m395.59,464.7c.79-.96,1.49-.99,2.45-1.1-.65.8-1.23,1.12-2.45,1.1Z"/>
  <path class="cls-17" d="m420.05,490.49c-.18-.18-.37-.36-.55-.54.22-.44.65-1.13.99-.85.57.47-.07.98-.44,1.39Z"/>
  <path class="cls-25" d="m46.03,44.67c-.05,3.68-2.45,6.85-6.04,7.96-3.43,1.06-7.2-.18-9.32-3.02-.94-1.26-1.32-2.1.71-2.77,3.93-1.3,7.77-2.89,11.64-4.35,2.61-.98,3.03-.67,3,2.18Z"/>
  <path class="cls-8" d="m151.57,62.56c-.55,0-1.11,0-1.67,0-1.67-.43-3.21-1.11-4.57-2.18,2.21.39,4.27,1.15,6.23,2.18Z"/>
  <path class="cls-13" d="m177.54,72.67c-.92-.2-1.83-.43-2.54-1.11,1.01,0,1.92.22,2.54,1.11Z"/>
  <path class="cls-16" d="m171.02,70.12c-.93-.14-1.81-.39-2.51-1.06.98,0,1.87.25,2.51,1.06Z"/>
  <path class="cls-9" d="m181.79,74.05c-1.07.03-2.02-.28-2.83-.99,1.07-.05,1.97.4,2.83.99Z"/>
  <path class="cls-26" d="m826.47,431.32c-.08,3.93-2.61,7.26-6.34,8.34-3.4.98-7.14-.48-9.17-3.47-.93-1.36-.85-2.06.84-2.67,3.83-1.38,7.59-2.95,11.38-4.44,2.94-1.16,3.36-.87,3.3,2.25Z"/>
</svg>