<?xml version="1.0" encoding="UTF-8"?>
<svg id="Capa_1" data-name="Capa 1" xmlns="http://www.w3.org/2000/svg" viewBox="0 0 59 55">
  <defs>
    <style>
      .cls-1 {
        fill: #fff;
        stroke-width: 0px;
      }
    </style>
  </defs>
  <path class="cls-1" d="m22.22,35.4c3.19,1.5,6.44,1.5,9.68.13.72-.31,1.4-.73,2.16-1.12.02.03.07.12.14.19,2.22,2.31,4.43,4.61,6.65,6.92.1.1.2.21.31.3.71.6,1.81.42,2.29-.38.4-.66.28-1.38-.32-2-2.22-2.31-4.44-4.61-6.65-6.92-.07-.07-.14-.15-.21-.22.23-.3.45-.56.64-.85,2.48-3.81,2.89-7.81.91-11.93-1.63-3.41-4.38-5.51-8.05-6.39-.59-.14-1.2-.2-1.8-.29h-1.55c-.55.08-1.12.14-1.66.26-3.37.77-5.98,2.62-7.75,5.6-1.67,2.81-2.1,5.84-1.25,8.99.95,3.56,3.13,6.16,6.47,7.73Zm4.98-19.48c4.82,0,8.74,3.92,8.75,8.75,0,4.82-3.97,8.8-8.76,8.76-4.85-.04-8.74-3.94-8.74-8.76,0-4.82,3.94-8.75,8.75-8.75Z"/>
</svg>