<?xml version="1.0" encoding="UTF-8"?>
<svg id="Capa_1" data-name="Capa 1" xmlns="http://www.w3.org/2000/svg" viewBox="0 0 59 55">
  <defs>
    <style>
      .cls-1 {
        fill: #fff;
        stroke-width: 0px;
      }
    </style>
  </defs>
  <path class="cls-1" d="m41.7,14.53c-8.14.02-16.28.02-24.42,0-.61,0-.75.19-.75.77.02,8.14.02,16.28,0,24.42,0,.61.19.75.77.75,4.07-.02,8.14-.01,12.21-.01,4.07,0,8.14-.01,12.21.01.6,0,.76-.18.76-.77-.02-8.14-.02-16.28,0-24.42,0-.62-.21-.75-.78-.75Zm-3.83,12.85c-.73.74-1.43,1.51-2.17,2.24-.27.27-.38.53-.32.92.16,1.12.29,2.25.41,3.38.18,1.65-1.27,2.72-2.78,2.03-1.03-.47-2.04-1.01-3.07-1.47-.24-.11-.61-.11-.84,0-1.07.48-2.11,1.04-3.18,1.51-1.35.6-2.77-.37-2.72-1.91.13-1.12.27-2.33.43-3.53.05-.38-.03-.65-.31-.92-.73-.72-1.41-1.48-2.13-2.2-.59-.59-.87-1.27-.61-2.09.25-.8.85-1.19,1.64-1.36,1.04-.21,2.06-.47,3.1-.67.45-.08.7-.31.91-.7.5-.91,1.02-1.81,1.54-2.71.85-1.44,2.59-1.45,3.45,0,.56.94,1.08,1.91,1.65,2.85.14.23.43.45.69.51,1.08.28,2.18.5,3.27.73.8.17,1.38.58,1.61,1.39.23.78-.03,1.43-.58,2Z"/>
  <path class="cls-1" d="m29.5,24.66c-.6,1.5-1.63,2.3-3.29,2.4,1.35,1.02,1.62,2.33,1.26,3.9,1.39-1,2.7-.92,4.08-.02-.41-1.59-.07-2.86,1.26-3.88-1.64-.11-2.72-.87-3.31-2.4Z"/>
  <path class="cls-1" d="m46.53,5.77c-11.29-.05-22.59-.11-33.88-.15-3.23-.01-4.86,1.61-4.88,4.85-.03,5.61-.05,11.22-.08,16.83-.03,5.69-.05,11.37-.08,17.06-.01,3.23,1.61,4.86,4.86,4.87,11.3.05,22.59.11,33.88.15,3.23.01,4.86-1.61,4.88-4.85.05-11.3.11-22.59.16-33.89.01-3.22-1.62-4.86-4.86-4.87Zm-2.34,39.18c-9.81,0-19.63,0-29.44,0-1.86,0-2.71-.83-2.71-2.68,0-9.86,0-19.72,0-29.58,0-1.78.84-2.64,2.61-2.64,4.95,0,9.9,0,14.86,0,4.88,0,9.77,0,14.65,0,2.02,0,2.81.78,2.81,2.78,0,9.79,0,19.58,0,29.37,0,1.95-.81,2.74-2.78,2.74Z"/>
</svg>