<?xml version="1.0" encoding="UTF-8"?>
<svg id="Capa_1" data-name="Capa 1" xmlns="http://www.w3.org/2000/svg" viewBox="0 0 59 55">
  <defs>
    <style>
      .cls-1 {
        fill: #4444b6;
        stroke-width: 0px;
      }
    </style>
  </defs>
  <path class="cls-1" d="m46.56,5.69c-11.37,0-22.74,0-34.11,0-3.1,0-4.76,1.65-4.76,4.74,0,5.69,0,11.37,0,17.06,0,5.69,0,11.37,0,17.06,0,3.09,1.67,4.76,4.74,4.76,11.37,0,22.74,0,34.11,0,3.08,0,4.76-1.67,4.77-4.74,0-11.37,0-22.74,0-34.11,0-3.09-1.67-4.76-4.75-4.76Zm1.67,33.37c0,2.69-2,4.68-4.69,4.68-4.68,0-9.37,0-14.05,0-4.66,0-9.32,0-13.97,0-2.79,0-4.76-1.97-4.76-4.77,0-5.99,0-11.97,0-17.96,0-2.79,1.97-4.76,4.77-4.76,1.6,0,3.2,0,4.8,0,.27,0,.39-.07.47-.33.17-.57.36-1.14.57-1.7.66-1.79,2.32-2.96,4.23-2.97,2.6-.01,5.2-.01,7.81,0,1.91.01,3.55,1.18,4.22,2.98.2.54.38,1.08.54,1.63.09.29.21.4.54.4,1.61-.02,3.23-.01,4.84,0,2.69,0,4.68,1.99,4.69,4.68,0,6.04,0,12.08,0,18.11Z"/>
  <path class="cls-1" d="m43.5,18.76c-1.98,0-3.95,0-5.93,0-.76,0-1.15-.28-1.39-1-.28-.82-.55-1.65-.83-2.48-.34-1-1.05-1.52-2.11-1.52-2.48,0-4.97,0-7.45,0-1.11,0-1.79.5-2.15,1.57-.26.78-.52,1.55-.78,2.33-.28.84-.64,1.1-1.52,1.1-1.93,0-3.85,0-5.78,0-1.47,0-2.3.83-2.3,2.29,0,5.96,0,11.92,0,17.88,0,1.49.82,2.32,2.31,2.32,4.64,0,9.29,0,13.93,0s9.31,0,13.97,0c1.41,0,2.26-.85,2.26-2.25,0-6,0-12,0-17.99,0-1.39-.85-2.24-2.23-2.24Zm-14.01,19.99c-5.16,0-9.35-4.2-9.36-9.36,0-5.16,4.19-9.38,9.34-9.38,5.2,0,9.4,4.2,9.4,9.4,0,5.15-4.22,9.34-9.38,9.34Zm12.48-14.99c-.69-.01-1.25-.61-1.22-1.3.03-.68.61-1.22,1.29-1.19.68.02,1.22.6,1.21,1.28-.02.68-.59,1.23-1.27,1.22Z"/>
  <path class="cls-1" d="m29.54,22.51c-3.85,0-6.92,3.07-6.91,6.92,0,3.76,3.1,6.82,6.88,6.83,3.76,0,6.86-3.1,6.85-6.86,0-3.79-3.07-6.88-6.83-6.88Z"/>
</svg>